<?xml version="1.0" encoding="UTF-8"?>
<svg version="1.1" xmlns="http://www.w3.org/2000/svg" width="1037" height="1051">
<path d="M0 0 C0.60859863 0.43779785 1.21719727 0.8755957 1.84423828 1.32666016 C10.13724854 7.29932536 17.96453056 13.52798096 25.39453125 20.546875 C27.60731071 22.63027155 29.86248316 24.60747601 32.1875 26.5625 C69.46551539 59.09464896 94.08395029 112.63744908 100 161 C100.0928125 161.70213623 100.185625 162.40427246 100.28125 163.12768555 C101.25382887 171.37115985 101.24362516 179.64858953 101.25 187.9375 C101.25067474 188.72901459 101.25134949 189.52052917 101.25204468 190.33602905 C101.18421172 240.78156108 87.47405634 287.48031025 58.8125 329.125 C58.25570557 329.93630371 57.69891113 330.74760742 57.12524414 331.58349609 C51.97408102 339.07172729 46.73973149 346.49978094 41.47949219 353.91162109 C39.99499848 356.0070599 38.5161166 358.10634291 37.0390625 360.20703125 C30.31081757 369.77316719 23.49501332 379.27261296 16.63232422 388.74267578 C15.02207556 390.96947194 13.41821686 393.20072201 11.81640625 395.43359375 C4.22118347 406.01103274 -3.54144386 416.4538938 -11.38134766 426.85107422 C-13.40750532 429.5410048 -15.42244534 432.23924585 -17.4375 434.9375 C-27.51520815 448.37444421 -37.74567782 461.69757174 -48 475 C-48.77085937 476.00417969 -49.54171875 477.00835938 -50.3359375 478.04296875 C-60.26361758 490.97465558 -70.27683226 503.84021896 -80.36328125 516.6484375 C-82.13627175 518.8999582 -83.90412755 521.15536764 -85.66796875 523.4140625 C-91.10895632 530.37431243 -96.63622324 537.25583783 -102.22509766 544.09790039 C-105.63567522 548.28564235 -108.97455442 552.51839988 -112.25 556.8125 C-115.45676959 560.99751741 -118.66386557 565.17960243 -121.9375 569.3125 C-122.64777344 570.21613281 -123.35804688 571.11976563 -124.08984375 572.05078125 C-124.72019531 572.69402344 -125.35054687 573.33726562 -126 574 C-126.99 574 -127.98 574 -129 574 C-128.99907821 572.95471414 -128.99815641 571.90942827 -128.99720669 570.83246708 C-128.97504015 545.43767092 -128.95858996 520.04287602 -128.94818783 494.64807224 C-128.94302417 482.36751017 -128.93598014 470.08695447 -128.92456055 457.80639648 C-128.91461584 447.10685708 -128.90814708 436.40732229 -128.90591151 425.70777839 C-128.90460403 420.03868058 -128.90151589 414.36959599 -128.89426994 408.7005024 C-128.88751309 403.37119688 -128.88538235 398.0419101 -128.88689232 392.71260071 C-128.88661584 390.75053747 -128.88460874 388.78847365 -128.88079453 386.82641411 C-128.87586251 384.15989244 -128.87699988 381.49344269 -128.87974548 378.82691956 C-128.87683264 378.03996989 -128.8739198 377.25302023 -128.87091869 376.44222361 C-128.55736586 372.92842688 -128.55736586 372.92842688 -130 370 C-131.72586591 369.76009669 -133.45994076 369.57888346 -135.1953125 369.421875 C-136.86207031 369.25751953 -136.86207031 369.25751953 -138.5625 369.08984375 C-140.85087223 368.87154508 -143.13990697 368.66002598 -145.4296875 368.45703125 C-157.36132449 367.25576916 -167.99421632 364.60995297 -180 362 C-180 380.81 -180 399.62 -180 419 C-183.94775387 420.31591796 -185.6885651 419.38601805 -189.6328125 418.11328125 C-190.29336136 417.90052048 -190.95391022 417.6877597 -191.63447571 417.46855164 C-193.802546 416.76293615 -195.96421569 416.0401059 -198.125 415.3125 C-198.86452911 415.0652417 -199.60405823 414.8179834 -200.36599731 414.56323242 C-258.49108968 394.99741132 -307.06397898 355.36018615 -335.00634766 300.42138672 C-344.7774812 280.41492365 -351.15756974 258.88915975 -355 237 C-355.16226074 236.12037598 -355.32452148 235.24075195 -355.49169922 234.33447266 C-361.91833268 198.22196576 -359.39015895 159.07211657 -349 124 C-348.63116699 122.74727295 -348.63116699 122.74727295 -348.25488281 121.46923828 C-338.71915607 89.73333466 -322.87141102 61.76706262 -301 37 C-300.55011719 36.48695313 -300.10023438 35.97390625 -299.63671875 35.4453125 C-264.489621 -4.46234316 -215.14819459 -28.70933386 -163 -37 C-161.88383301 -37.19263428 -161.88383301 -37.19263428 -160.74511719 -37.38916016 C-106.25660245 -46.59939373 -44.48037284 -32.6511285 0 0 Z " fill="#D83C96" transform="translate(673,207)"/>
<path d="M0 0 C0.60859863 0.43779785 1.21719727 0.8755957 1.84423828 1.32666016 C10.13724854 7.29932536 17.96453056 13.52798096 25.39453125 20.546875 C27.60731071 22.63027155 29.86248316 24.60747601 32.1875 26.5625 C69.46551539 59.09464896 94.08395029 112.63744908 100 161 C100.0928125 161.70213623 100.185625 162.40427246 100.28125 163.12768555 C101.25382887 171.37115985 101.24362516 179.64858953 101.25 187.9375 C101.25067474 188.72901459 101.25134949 189.52052917 101.25204468 190.33602905 C101.18421172 240.78156108 87.47405634 287.48031025 58.8125 329.125 C58.25570557 329.93630371 57.69891113 330.74760742 57.12524414 331.58349609 C51.97408102 339.07172729 46.73973149 346.49978094 41.47949219 353.91162109 C39.99499848 356.0070599 38.5161166 358.10634291 37.0390625 360.20703125 C30.31081757 369.77316719 23.49501332 379.27261296 16.63232422 388.74267578 C15.02207556 390.96947194 13.41821686 393.20072201 11.81640625 395.43359375 C4.22118347 406.01103274 -3.54144386 416.4538938 -11.38134766 426.85107422 C-13.40750532 429.5410048 -15.42244534 432.23924585 -17.4375 434.9375 C-27.51520815 448.37444421 -37.74567782 461.69757174 -48 475 C-48.77085937 476.00417969 -49.54171875 477.00835938 -50.3359375 478.04296875 C-60.26361758 490.97465558 -70.27683226 503.84021896 -80.36328125 516.6484375 C-82.13627175 518.8999582 -83.90412755 521.15536764 -85.66796875 523.4140625 C-91.10895632 530.37431243 -96.63622324 537.25583783 -102.22509766 544.09790039 C-105.63567522 548.28564235 -108.97455442 552.51839988 -112.25 556.8125 C-115.45676959 560.99751741 -118.66386557 565.17960243 -121.9375 569.3125 C-122.64777344 570.21613281 -123.35804688 571.11976563 -124.08984375 572.05078125 C-124.72019531 572.69402344 -125.35054687 573.33726562 -126 574 C-126.99 574 -127.98 574 -129 574 C-129.02332566 547.41897582 -129.04097754 520.83795316 -129.05181217 494.25692081 C-129.05697584 481.9158246 -129.06401987 469.57473472 -129.07543945 457.23364258 C-129.08538414 446.48136546 -129.09185291 435.72909294 -129.09408849 424.97681135 C-129.09539597 419.27976789 -129.09848413 413.58273758 -129.10573006 407.88569832 C-129.11248688 402.530128 -129.11461765 397.17457633 -129.11310768 391.81900215 C-129.11338416 389.84726358 -129.11539128 387.87552442 -129.11920547 385.90378952 C-129.12413745 383.22413078 -129.12300013 380.54454361 -129.12025452 377.86488342 C-129.12462378 376.67862251 -129.12462378 376.67862251 -129.12908131 375.46839672 C-129.11412121 370.11412121 -129.11412121 370.11412121 -128 369 C-126.63898962 368.87882956 -125.27228491 368.82036986 -123.90625 368.7890625 C-123.0488623 368.76279785 -122.19147461 368.7365332 -121.30810547 368.70947266 C-120.38143066 368.68159668 -119.45475586 368.6537207 -118.5 368.625 C-76.40059592 366.98290095 -35.05925928 348.59168116 -6 318 C-5.20980469 317.21882813 -4.41960937 316.43765625 -3.60546875 315.6328125 C29.3780062 282.30318414 44.21957296 236.96265501 44.32128906 190.82592773 C44.25355424 178.90378702 42.66949614 167.59752979 40 156 C39.75975098 154.92492187 39.75975098 154.92492187 39.51464844 153.828125 C31.44548642 118.46772076 10.96251146 84.96970044 -17.41796875 62.21875 C-18.27003906 61.4865625 -19.12210938 60.754375 -20 60 C-20 59.34 -20 58.68 -20 58 C-20.58426758 57.88068115 -21.16853516 57.7613623 -21.77050781 57.63842773 C-25.53994628 56.55902765 -28.52376143 54.23670426 -31.75 52.0625 C-32.44738281 51.60681641 -33.14476562 51.15113281 -33.86328125 50.68164062 C-35.61476963 49.51112539 -37.31269722 48.26127982 -39 47 C-39 46.34 -39 45.68 -39 45 C-39.72928711 44.88156738 -40.45857422 44.76313477 -41.20996094 44.64111328 C-44.01546983 43.99644524 -46.10313554 43.08238121 -48.640625 41.7421875 C-86.64470966 22.2652227 -133.05763435 15.9359864 -174.43383789 28.67724609 C-192.87188747 34.81082277 -210.43694329 42.73738849 -226.328125 53.96875 C-228 55 -228 55 -230 55 C-230 55.66 -230 56.32 -230 57 C-231.73046875 58.5234375 -231.73046875 58.5234375 -234.1875 60.375 C-244.65563521 68.574545 -253.95100591 77.37594458 -262 88 C-262.97839844 89.25490234 -262.97839844 89.25490234 -263.9765625 90.53515625 C-292.2902074 127.92947212 -303.10016785 175.11925374 -296.86572266 221.31933594 C-295.04136629 232.91171379 -292.03544895 243.99283259 -288 255 C-287.64832764 255.98419922 -287.64832764 255.98419922 -287.28955078 256.98828125 C-272.18532141 298.85801518 -240.79700119 332.67700625 -201.14453125 352.421875 C-194.22261752 355.6580944 -187.15047885 358.24981583 -180 361 C-180 380.14 -180 399.28 -180 419 C-183.94775387 420.31591796 -185.6885651 419.38601805 -189.6328125 418.11328125 C-190.29336136 417.90052048 -190.95391022 417.6877597 -191.63447571 417.46855164 C-193.802546 416.76293615 -195.96421569 416.0401059 -198.125 415.3125 C-198.86452911 415.0652417 -199.60405823 414.8179834 -200.36599731 414.56323242 C-258.49108968 394.99741132 -307.06397898 355.36018615 -335.00634766 300.42138672 C-344.7774812 280.41492365 -351.15756974 258.88915975 -355 237 C-355.16226074 236.12037598 -355.32452148 235.24075195 -355.49169922 234.33447266 C-361.91833268 198.22196576 -359.39015895 159.07211657 -349 124 C-348.63116699 122.74727295 -348.63116699 122.74727295 -348.25488281 121.46923828 C-338.71915607 89.73333466 -322.87141102 61.76706262 -301 37 C-300.55011719 36.48695313 -300.10023438 35.97390625 -299.63671875 35.4453125 C-264.489621 -4.46234316 -215.14819459 -28.70933386 -163 -37 C-161.88383301 -37.19263428 -161.88383301 -37.19263428 -160.74511719 -37.38916016 C-106.25660245 -46.59939373 -44.48037284 -32.6511285 0 0 Z " fill="#010001" transform="translate(673,207)"/>
<path d="M0 0 C1.21033535 3.55031703 1.23465877 5.39250359 -0.12109375 8.90234375 C-2.25117009 12.41409122 -4.71220172 14.4790845 -8 16.8125 C-9.17285431 17.68097069 -10.34471297 18.55078742 -11.515625 19.421875 C-12.39444336 20.06866211 -12.39444336 20.06866211 -13.29101562 20.72851562 C-53.97440477 50.99695715 -82.92025925 104.97797191 -90.65771484 154.57226562 C-91.66156946 161.69233001 -92.38418678 168.83711992 -93 176 C-91.90300781 176.10957031 -90.80601562 176.21914063 -89.67578125 176.33203125 C-88.22128484 176.49155666 -86.76686137 176.65174813 -85.3125 176.8125 C-84.59126953 176.88275391 -83.87003906 176.95300781 -83.12695312 177.02539062 C-75.15114251 177.93587129 -75.15114251 177.93587129 -72 181 C-69.19200773 204.82856988 -82.69250016 225.69896188 -96.27539062 243.71020508 C-100.07825242 248.7569096 -103.85749736 253.81838723 -107.5625 258.9375 C-108.06297852 259.61063232 -108.56345703 260.28376465 -109.07910156 260.97729492 C-112.38785557 265.59288203 -115.10316117 270.31391498 -116 276 C-115.22945576 278.41624623 -115.22945576 278.41624623 -113.25 280 C-112.26386719 280.96292969 -112.26386719 280.96292969 -111.2578125 281.9453125 C-110.14019531 282.96238281 -110.14019531 282.96238281 -109 284 C-107.36980004 285.61978335 -105.74478335 287.24480004 -104.125 288.875 C-103.36445313 289.61492187 -102.60390625 290.35484375 -101.8203125 291.1171875 C-98.83743593 294.20248043 -98.75144253 296.49284171 -98.80419922 300.74023438 C-99.13738333 304.58556122 -100.34238863 308.10584774 -101.5625 311.75 C-103.76021203 317.79906778 -103.76021203 317.79906778 -103 324 C-102.443125 325.03125 -101.88625 326.0625 -101.3125 327.125 C-99.79408508 330.47126984 -100.12377214 332.53103621 -101 336.0625 C-101.85669061 339.59099444 -102.06525313 340.7797707 -101 344.375 C-98.22032666 348.02332126 -95.14762056 350.07668586 -90.9375 351.88671875 C-87.04876026 353.58089397 -85.33208044 354.45367411 -83.0625 358.1875 C-81.16998564 364.97828683 -80.52298026 369.86317307 -82.4375 376.75 C-84.7268289 385.11936054 -85.60035423 393.32453963 -82 401.4375 C-77.90059375 408.53085463 -72.04924877 412.06214358 -64.37109375 414.45703125 C-42.88879288 419.37637198 -19.46348489 414.91623 1.65649414 410.18261719 C2.4324292 410.01407227 3.20836426 409.84552734 4.0078125 409.671875 C4.68473145 409.5181543 5.36165039 409.36443359 6.05908203 409.20605469 C8.2753743 408.97076529 9.86543892 409.41727013 12 410 C12.29439805 413.51952062 12.5886306 417.03905506 12.8828125 420.55859375 C12.97752335 421.69157394 13.07223419 422.82455414 13.16981506 423.99186707 C13.71306299 430.49426754 14.25481503 436.996789 14.79418945 443.49951172 C15.02811616 446.31868833 15.26209828 449.13786034 15.49609375 451.95703125 C15.55593508 452.6782592 15.61577641 453.39948715 15.67743111 454.1425705 C16.43950129 463.32301726 17.21102109 472.50259746 17.99408817 481.68127728 C23.25973088 543.40858271 23.25973088 543.40858271 24.4375 567.875 C24.47942474 568.70864075 24.52134949 569.54228149 24.56454468 570.40118408 C24.98473956 579.00903015 25.13345979 587.42654262 24 596 C22 595 22 595 21.16552734 592.76049805 C20.8917627 591.77090088 20.61799805 590.78130371 20.3359375 589.76171875 C20.02301758 588.64667969 19.71009766 587.53164063 19.38769531 586.3828125 C18.88641113 584.55363281 18.88641113 584.55363281 18.375 582.6875 C17.8335443 580.7577342 17.29208142 578.82797036 16.75012207 576.89834595 C15.50081116 572.4389657 14.26870052 567.97482366 13.03808594 563.51025391 C7.61566 543.87624187 1.3550578 524.60588657 -5.20849609 505.33026123 C-6.26855659 502.20934437 -7.31947754 499.08538008 -8.37072754 495.96148682 C-15.74672708 474.05872269 -23.23035725 452.5081495 -34 432 C-41.77412867 432.73799711 -49.38573033 434.08511354 -57.0625 435.5 C-69.40715417 437.7680467 -80.8053071 439.19900733 -93.375 439.25 C-94.63828125 439.270625 -95.9015625 439.29125 -97.203125 439.3125 C-108.69108746 439.360267 -120.10963588 437.43297378 -128.82421875 429.296875 C-134.30062011 423.1972512 -135.31186684 418.08088863 -135.1875 410.0625 C-135.18685547 409.27681641 -135.18621094 408.49113281 -135.18554688 407.68164062 C-135.15281459 403.33552071 -134.76182621 399.28748702 -134 395 C-133.41417536 385.81832538 -133.86022852 379.70965722 -139 372 C-140.546875 371.62875 -140.546875 371.62875 -142.125 371.25 C-147.04651271 370.02996114 -150.72788931 366.78287919 -154 363 C-155.45870455 359.3243534 -154.4488094 356.83008135 -153.42578125 353.0859375 C-152.76145942 349.83137 -153.21548252 347.19841741 -154 344 C-154.53625 343.195625 -155.0725 342.39125 -155.625 341.5625 C-158.46303054 336.27344308 -155.68133621 329.5531327 -154.03710938 324.09375 C-153.54860092 322.51366874 -153.0536633 320.93556266 -152.55273438 319.359375 C-152.32521484 318.59625 -152.09769531 317.833125 -151.86328125 317.046875 C-151.54290894 316.02352051 -151.54290894 316.02352051 -151.21606445 314.97949219 C-150.9324528 312.38116077 -151.61461173 311.18274422 -153 309 C-154.57652414 307.48939325 -156.2078252 306.03492528 -157.875 304.625 C-163.5626296 299.55380424 -167.13519677 296.24246431 -167.625 288.375 C-167.18320371 277.20583743 -161.0451801 269.51399452 -153.5859375 261.71875 C-133.47903685 240.57916865 -124.51830253 218.58012808 -121 190 C-121.62567871 189.91959473 -122.25135742 189.83918945 -122.89599609 189.75634766 C-125.72355296 189.38799282 -128.54921035 189.0066651 -131.375 188.625 C-132.35984375 188.49867188 -133.3446875 188.37234375 -134.359375 188.2421875 C-135.30039063 188.11328125 -136.24140625 187.984375 -137.2109375 187.8515625 C-138.51490479 187.67874756 -138.51490479 187.67874756 -139.84521484 187.50244141 C-142 187 -142 187 -144 185 C-146.7909957 156.50588111 -135.18574307 127.17695339 -123 102 C-122.68208496 101.33000977 -122.36416992 100.66001953 -122.03662109 99.96972656 C-107.12414679 68.60132551 -85.83759797 40.1088968 -58 19 C-57.47470703 18.5982959 -56.94941406 18.1965918 -56.40820312 17.78271484 C-43.50871223 7.98768135 -16.54283137 -11.81630812 0 0 Z " fill="#010001" transform="translate(386,191)"/>
<path d="M0 0 C9.12216552 7.50966151 14.25725231 17.02523346 17.6328125 28.22265625 C17.82488281 28.83367187 18.01695312 29.4446875 18.21484375 30.07421875 C20.89286915 43.83976988 17.46940686 57.55524511 10.515625 69.5234375 C4.32010454 78.40539733 -3.46091877 84.91197864 -13.3671875 89.22265625 C-14.55441406 89.75890625 -15.74164062 90.29515625 -16.96484375 90.84765625 C-22.26002646 92.78608803 -27.53217792 92.75672983 -33.1171875 92.72265625 C-34.18396729 92.71766113 -35.25074707 92.71266602 -36.34985352 92.70751953 C-44.42934966 92.52837328 -50.39670842 91.51656248 -57.3671875 87.22265625 C-58.15609375 86.78824219 -58.945 86.35382813 -59.7578125 85.90625 C-68.99672665 80.3911839 -75.88446886 71.91323919 -80.3671875 62.22265625 C-80.7590625 61.4853125 -81.1509375 60.74796875 -81.5546875 59.98828125 C-86.3922951 49.43960911 -86.46671114 33.83842447 -82.6796875 22.91015625 C-81.95453537 21.32593888 -81.18583673 19.76064316 -80.3671875 18.22265625 C-80.00496094 17.45308594 -79.64273437 16.68351562 -79.26953125 15.890625 C-73.50005385 4.41034285 -64.15894492 -3.81839307 -52.2421875 -8.58984375 C-50.95824115 -9.01004437 -49.66616572 -9.40620712 -48.3671875 -9.77734375 C-47.35978516 -10.08285156 -47.35978516 -10.08285156 -46.33203125 -10.39453125 C-29.56117402 -14.83835186 -13.57536717 -10.19272618 0 0 Z " fill="#020002" transform="translate(578.3671875,362.77734375)"/>
<path d="M0 0 C0.66 0.33 1.32 0.66 2 1 C1.34 2.32 0.68 3.64 0 5 C-1.32 5 -2.64 5 -4 5 C-4 5.66 -4 6.32 -4 7 C-4.66 7 -5.32 7 -6 7 C-6.33 7.99 -6.66 8.98 -7 10 C-8.453125 11.4296875 -8.453125 11.4296875 -10.25 12.875 C-14.32685573 16.2486609 -18.04794491 19.57191737 -21 24 C-21 24.66 -21 25.32 -21 26 C-21.598125 26.061875 -22.19625 26.12375 -22.8125 26.1875 C-25.87143458 27.3236757 -26.55041099 29.17330142 -28 32 C-28.99 31.67 -29.98 31.34 -31 31 C-21.50643022 19.62636157 -11.68261025 9.16999003 0 0 Z " fill="#B53D7F" transform="translate(441,264)"/>
<path d="M0 0 C0 0.33 0 0.66 0 1 C-0.86238281 1.13535156 -1.72476563 1.27070313 -2.61328125 1.41015625 C-14.92244363 3.58083219 -26.46992657 7.62591847 -37.875 12.71875 C-41 14 -41 14 -44 14 C-44 13.34 -44 12.68 -44 12 C-42.68 12 -41.36 12 -40 12 C-39.67 11.01 -39.34 10.02 -39 9 C-34.545 8.505 -34.545 8.505 -30 8 C-30 7.34 -30 6.68 -30 6 C-25.8803623 4.70756464 -22.33168317 3.73747375 -18 4 C-18 3.34 -18 2.68 -18 2 C-11.84629161 0.176679 -6.40353322 -0.2361959 0 0 Z " fill="#340B21" transform="translate(516,231)"/>
<path d="M0 0 C0.33 0 0.66 0 1 0 C1 3.3 1 6.6 1 10 C0.34 10 -0.32 10 -1 10 C-1.66 13.3 -2.32 16.6 -3 20 C-3.99 20.33 -4.98 20.66 -6 21 C-7.16953416 23.42383077 -7.16953416 23.42383077 -8 26 C-8.33 26.66 -8.66 27.32 -9 28 C-10.32 27.67 -11.64 27.34 -13 27 C-12.41992188 26.27296875 -12.41992188 26.27296875 -11.828125 25.53125 C-5.5590494 17.4621428 -2.40812003 9.92437348 0 0 Z " fill="#BC3E86" transform="translate(596,411)"/>
<path d="M0 0 C0 3 0 3 -1.6796875 5.04296875 C-2.76636719 6.10451172 -2.76636719 6.10451172 -3.875 7.1875 C-4.59429687 7.90292969 -5.31359375 8.61835938 -6.0546875 9.35546875 C-8 11 -8 11 -10 11 C-10.21398437 11.54140625 -10.42796875 12.0828125 -10.6484375 12.640625 C-12.48077943 15.8392797 -14.99796606 18.20964484 -17.625 20.75 C-18.140625 21.25660156 -18.65625 21.76320312 -19.1875 22.28515625 C-20.45383339 23.52803902 -21.7263144 24.76465276 -23 26 C-23.66 25.67 -24.32 25.34 -25 25 C-16.99042267 16.28256222 -9.04643869 7.66286571 0 0 Z " fill="#100410" transform="translate(394,222)"/>
<path d="M0 0 C2.24773318 3.37159977 3.32856292 6.7307956 4.5 10.5625 C4.71994629 11.27760742 4.93989258 11.99271484 5.16650391 12.72949219 C9.66762106 27.63461052 9.66762106 27.63461052 8 33 C6 26 4 19 2 12 C1.67 12 1.34 12 1 12 C0.67 8.04 0.34 4.08 0 0 Z " fill="#B53F80" transform="translate(706,339)"/>
<path d="M0 0 C0.33 0 0.66 0 1 0 C1.01981934 0.59723877 1.03963867 1.19447754 1.06005859 1.80981445 C1.52644317 15.28472123 2.39099549 28.61245758 4 42 C0.37803153 36.5670473 -0.29116044 31.61020499 -0.1953125 25.1953125 C-0.1924826 24.4713327 -0.18965271 23.74735291 -0.18673706 23.00143433 C-0.17562087 20.7091151 -0.15053312 18.41719937 -0.125 16.125 C-0.1149591 14.56250568 -0.10583519 13.00000518 -0.09765625 11.4375 C-0.07570973 7.62484662 -0.04124013 3.81249152 0 0 Z " fill="#260316" transform="translate(373,395)"/>
<path d="M0 0 C0.53367187 0.2165625 1.06734375 0.433125 1.6171875 0.65625 C8.75715765 3.32447414 15.58870666 4.10297569 23 2 C23 2.99 23 3.98 23 5 C15.73979376 8.63010312 5.35058713 4.75661257 -2 3 C-1.34 2.67 -0.68 2.34 0 2 C0 1.34 0 0.68 0 0 Z " fill="#D1308A" transform="translate(510,569)"/>
<path d="M0 0 C0.33 0 0.66 0 1 0 C1.08939932 3.21837539 0.93346845 5.91955413 0 9 C-0.268125 9.94875 -0.53625 10.8975 -0.8125 11.875 C-2.11770215 15.30974249 -3.87017361 18.01824305 -6 21 C-7.35877888 16.92366336 -6.17330445 15.05115252 -4.6875 11.0625 C-4.23761719 9.83660156 -3.78773438 8.61070312 -3.32421875 7.34765625 C-2.3196612 4.80811107 -1.28372331 2.40472114 0 0 Z " fill="#BE4086" transform="translate(390,328)"/>
<path d="M0 0 C-6.37457348 0.95468258 -12.56061653 1.1202324 -19 1.0625 C-19.96550781 1.05798828 -20.93101562 1.05347656 -21.92578125 1.04882812 C-24.28392089 1.03715417 -26.64192602 1.02078021 -29 1 C-29 0.67 -29 0.34 -29 0 C-5.7346604 -3.19720004 -5.7346604 -3.19720004 0 0 Z " fill="#A33773" transform="translate(574,575)"/>
<path d="M0 0 C-0.33 0.66 -0.66 1.32 -1 2 C-3.73299596 2.78466298 -6.41468437 3.45630672 -9.1875 4.0625 C-9.94353516 4.23587891 -10.69957031 4.40925781 -11.47851562 4.58789062 C-15.63475411 5.52872171 -19.78685543 6.3482057 -24 7 C-21.05738349 4.05738349 -17.5617927 3.18808429 -13.6875 1.8125 C-12.92759766 1.52697266 -12.16769531 1.24144531 -11.38476562 0.94726562 C-7.24269788 -0.53178724 -4.3376864 -1.49784381 0 0 Z " fill="#BA3F84" transform="translate(506,235)"/>
<path d="M0 0 C-3 2 -3 2 -6 2 C-6 1.34 -6 0.68 -6 0 C-12.27 0 -18.54 0 -25 0 C-17.25315337 -3.87342332 -8.08396609 -2.53614622 0 0 Z " fill="#2B081C" transform="translate(560,353)"/>
<path d="M0 0 C1.04449911 3.13349732 0.93423645 3.98968256 0 7 C-1.32 7.33 -2.64 7.66 -4 8 C-4.103125 8.556875 -4.20625 9.11375 -4.3125 9.6875 C-5.14898763 12.50114022 -6.28217263 14.62146979 -8 17 C-8.99 17 -9.98 17 -11 17 C-9.35634678 14.3528064 -7.70971327 11.70747957 -6.0625 9.0625 C-5.59392578 8.30775391 -5.12535156 7.55300781 -4.64257812 6.77539062 C-4.19462891 6.05673828 -3.74667969 5.33808594 -3.28515625 4.59765625 C-2.87144775 3.93258057 -2.45773926 3.26750488 -2.03149414 2.58227539 C-1 1 -1 1 0 0 Z " fill="#AE3877" transform="translate(409,296)"/>
<path d="M0 0 C0.66 0 1.32 0 2 0 C2 2.31 2 4.62 2 7 C2.99 7 3.98 7 5 7 C5 10.61029169 4.03907418 13.55806676 3 17 C1.26830404 13.8377726 0.2871024 10.73257278 -0.625 7.25 C-0.88539063 6.26515625 -1.14578125 5.2803125 -1.4140625 4.265625 C-1.60742188 3.51796875 -1.80078125 2.7703125 -2 2 C-1.34 2 -0.68 2 0 2 C0 1.34 0 0.68 0 0 Z " fill="#C5418B" transform="translate(594,378)"/>
<path d="M0 0 C2.4027045 3.60405676 3.52929929 7.22281367 4.90234375 11.30859375 C5.97474892 13.93808542 7.27856306 15.76850768 9 18 C9 18.66 9 19.32 9 20 C7.1015625 19.7265625 7.1015625 19.7265625 5 19 C3.78582067 16.29144612 2.84750615 13.81833405 2 11 C1.4121875 9.14375 1.4121875 9.14375 0.8125 7.25 C0 4 0 4 0 0 Z " fill="#B33E7F" transform="translate(494,414)"/>
<path d="M0 0 C5.5174944 -0.6896868 9.04519702 -0.44252427 13.5625 3 C14.72580245 3.97962311 15.87827726 4.97302769 17 6 C16.01 6.495 16.01 6.495 15 7 C12.40267775 6.09239638 9.90549025 5.12932108 7.375 4.0625 C6.31539063 3.62647461 6.31539063 3.62647461 5.234375 3.18164062 C3.48672427 2.46132512 1.74298085 1.73154306 0 1 C0 0.67 0 0.34 0 0 Z " fill="#A93879" transform="translate(476,561)"/>
<path d="M0 0 C3.05001831 3.66002197 7 9.07851471 7 14 C6.34 14 5.68 14 5 14 C4 12.33333333 3 10.66666667 2 9 C1.34 9 0.68 9 0 9 C0 6.03 0 3.06 0 0 Z " fill="#BC4186" transform="translate(696,318)"/>
<path d="M0 0 C3.94727588 -0.17942163 6.5980513 -0.09350689 10 2 C10 2.99 10 3.98 10 5 C10.99 5 11.98 5 13 5 C13 5.66 13 6.32 13 7 C9.70319035 6.34215037 7.15882078 5.10579427 4.25 3.4375 C3.45078125 2.98246094 2.6515625 2.52742187 1.828125 2.05859375 C1.22484375 1.70925781 0.6215625 1.35992188 0 1 C0 0.67 0 0.34 0 0 Z " fill="#B03A7D" transform="translate(459,552)"/>
<path d="M0 0 C1.10960573 3.32881718 0.9412896 3.87364252 -0.21484375 7.01171875 C-0.48876953 7.76904297 -0.76269531 8.52636719 -1.04492188 9.30664062 C-1.33947266 10.09232422 -1.63402344 10.87800781 -1.9375 11.6875 C-2.22818359 12.48478516 -2.51886719 13.28207031 -2.81835938 14.10351562 C-3.53739302 16.07201757 -4.26763703 18.03641812 -5 20 C-6.23001005 15.92148753 -5.4970516 13.50497652 -4.1875 9.4375 C-3.83042969 8.30183594 -3.47335937 7.16617187 -3.10546875 5.99609375 C-2 3 -2 3 0 0 Z " fill="#2E061C" transform="translate(386,334)"/>
<path d="M0 0 C5.78898419 -0.20674944 10.42932723 0.40837921 16 2 C16 2.99 16 3.98 16 5 C10.72 3.68 5.44 2.36 0 1 C0 0.67 0 0.34 0 0 Z " fill="#AA3C7A" transform="translate(552,351)"/>
<path d="M0 0 C0.66 0.66 1.32 1.32 2 2 C-0.64 6.62 -3.28 11.24 -6 16 C-6.33 14.68 -6.66 13.36 -7 12 C-6.34 12 -5.68 12 -5 12 C-4.67 10.02 -4.34 8.04 -4 6 C-3.34 6 -2.68 6 -2 6 C-1.34 4.02 -0.68 2.04 0 0 Z " fill="#B94084" transform="translate(698,479)"/>
<path d="M0 0 C0.66 0 1.32 0 2 0 C0.82884146 3.33329739 -0.11647596 5.86405627 -3 8 C-5.6875 8.6875 -5.6875 8.6875 -8 9 C-7.04270084 7.87411986 -6.08412105 6.7493285 -5.125 5.625 C-4.59132813 4.99851562 -4.05765625 4.37203125 -3.5078125 3.7265625 C-2.38567993 2.44163349 -1.20628025 1.20628025 0 0 Z " fill="#2F0B1C" transform="translate(667,525)"/>
<path d="M0 0 C5.86809507 0.52393706 10.54873741 1.76108858 16 4 C14.1875 5.0625 14.1875 5.0625 12 6 C9.33794254 5.11264751 6.8687528 4.0859614 4.3125 2.9375 C3.10013672 2.39416016 3.10013672 2.39416016 1.86328125 1.83984375 C0.94095703 1.42412109 0.94095703 1.42412109 0 1 C0 0.67 0 0.34 0 0 Z " fill="#BB3D81" transform="translate(592,236)"/>
<path d="M0 0 C5.78898419 -0.20674944 10.42932723 0.40837921 16 2 C16 2.66 16 3.32 16 4 C10.49191603 3.40984815 5.35121931 2.43336231 0 1 C0 0.67 0 0.34 0 0 Z " fill="#3F0F29" transform="translate(576,231)"/>
<path d="M0 0 C-4.64203897 2.53309233 -8.65155992 4.46515599 -14 5 C-13.34 4.67 -12.68 4.34 -12 4 C-12 3.34 -12 2.68 -12 2 C-10.68 2 -9.36 2 -8 2 C-8 1.34 -8 0.68 -8 0 C-4.71303767 -0.79953138 -3.28976808 -1.09658936 0 0 Z " fill="#AD3C7B" transform="translate(617,561)"/>
<path d="M0 0 C0.33 0 0.66 0 1 0 C1.1953125 6.0546875 1.1953125 6.0546875 1 8 C0.34 8.66 -0.32 9.32 -1 10 C-1.64767793 12.57061311 -1.64767793 12.57061311 -2 15 C-3.1171875 13.359375 -3.1171875 13.359375 -4 11 C-3.3203125 8.203125 -3.3203125 8.203125 -2.125 5.25 C-1.73570312 4.26515625 -1.34640625 3.2803125 -0.9453125 2.265625 C-0.63335938 1.51796875 -0.32140625 0.7703125 0 0 Z " fill="#2B081D" transform="translate(708,459)"/>
<path d="M0 0 C0.33 0 0.66 0 1 0 C1 3.3 1 6.6 1 10 C0.34 10 -0.32 10 -1 10 C-1.12375 10.639375 -1.2475 11.27875 -1.375 11.9375 C-1.58125 12.618125 -1.7875 13.29875 -2 14 C-2.99 14.495 -2.99 14.495 -4 15 C-3.79503906 14.25234375 -3.59007812 13.5046875 -3.37890625 12.734375 C-3.10949219 11.74953125 -2.84007812 10.7646875 -2.5625 9.75 C-2.29566406 8.77546875 -2.02882813 7.8009375 -1.75390625 6.796875 C-1.14455416 4.53627347 -0.55761745 2.27377991 0 0 Z " fill="#B23F80" transform="translate(596,411)"/>
<path d="M0 0 C0 0.66 0 1.32 0 2 C-0.61875 2.0825 -1.2375 2.165 -1.875 2.25 C-4.18437567 2.81258459 -4.18437567 2.81258459 -5.25 5.0625 C-5.4975 5.701875 -5.745 6.34125 -6 7 C-7.65 6.67 -9.3 6.34 -11 6 C-8.24029211 2.78034079 -4.3526723 0 0 0 Z " fill="#B43B7C" transform="translate(472,246)"/>
<path d="M0 0 C-1.38866323 0.9893091 -2.78629851 1.96603078 -4.1875 2.9375 C-4.96480469 3.48277344 -5.74210938 4.02804687 -6.54296875 4.58984375 C-9.07950299 6.0456289 -11.1218182 6.59613435 -14 7 C-13 5 -13 5 -10 4 C-9.34 3.34 -8.68 2.68 -8 2 C-5.14066998 -0.85933002 -3.8625627 -1.2875209 0 0 Z " fill="#973269" transform="translate(633,553)"/>
<path d="M0 0 C0.66 0 1.32 0 2 0 C1.67 1.32 1.34 2.64 1 4 C0.67 2.68 0.34 1.36 0 0 Z M-2 0 C-1.67 0.66 -1.34 1.32 -1 2 C-1.33 2.66 -1.66 3.32 -2 4 C-1.34 4 -0.68 4 0 4 C-0.33 5.32 -0.66 6.64 -1 8 C-2.65 5.69 -4.3 3.38 -6 1 C-4.68 0.67 -3.36 0.34 -2 0 Z " fill="#C23D88" transform="translate(422,515)"/>
<path d="M0 0 C0.66 0.99 1.32 1.98 2 3 C1.34 3 0.68 3 0 3 C-0.103125 3.721875 -0.20625 4.44375 -0.3125 5.1875 C-1.05986932 8.24491993 -2.28045189 10.38329635 -4 13 C-4.66 12.67 -5.32 12.34 -6 12 C-4.02 8.04 -2.04 4.08 0 0 Z " fill="#B03D80" transform="translate(397,314)"/>
<path d="M0 0 C1.66666667 0 3.33333333 0 5 0 C5.33 2.31 5.66 4.62 6 7 C5.01 7 4.02 7 3 7 C0 2.77777778 0 2.77777778 0 0 Z " fill="#C03F87" transform="translate(399,492)"/>
<path d="M0 0 C0.66 0.33 1.32 0.66 2 1 C0.37660195 2.70884005 -1.29319053 4.37446717 -3 6 C-3.66 6 -4.32 6 -5 6 C-5.33 6.99 -5.66 7.98 -6 9 C-6.66 8.67 -7.32 8.34 -8 8 C-3.375 2.25 -3.375 2.25 0 0 Z " fill="#2C081F" transform="translate(514,361)"/>
<path d="M0 0 C1.98 0 3.96 0 6 0 C7.32 2.31 8.64 4.62 10 7 C6.42032008 5.34784004 3.22017048 3.26875648 0 1 C0 0.67 0 0.34 0 0 Z " fill="#360C22" transform="translate(639,256)"/>
<path d="M0 0 C0.33 1.32 0.66 2.64 1 4 C-0.3125 5.75 -0.3125 5.75 -2 7 C-2.66 7 -3.32 7 -4 7 C-4.66 8.32 -5.32 9.64 -6 11 C-6.66 10.67 -7.32 10.34 -8 10 C-5.36 6.7 -2.72 3.4 0 0 Z " fill="#360922" transform="translate(681,509)"/>
<path d="M0 0 C2.64752004 2.57784846 4.94432065 4.91648098 7 8 C5.68 8.33 4.36 8.66 3 9 C0 2.25 0 2.25 0 0 Z " fill="#BC3C80" transform="translate(504,435)"/>
<path d="M0 0 C0.598125 0.20625 1.19625 0.4125 1.8125 0.625 C1.4825 2.605 1.1525 4.585 0.8125 6.625 C-1.1675 4.975 -3.1475 3.325 -5.1875 1.625 C-2.1875 -0.375 -2.1875 -0.375 0 0 Z " fill="#280A1D" transform="translate(667.1875,273.375)"/>
<path d="M0 0 C5.36716665 -0.83861979 8.79627239 2.07929595 13 5 C12.01 5.495 12.01 5.495 11 6 C8.3984375 5.00390625 8.3984375 5.00390625 5.375 3.5625 C3.87066406 2.85287109 3.87066406 2.85287109 2.3359375 2.12890625 C1.56507813 1.75636719 0.79421875 1.38382813 0 1 C0 0.67 0 0.34 0 0 Z " fill="#410F29" transform="translate(606,239)"/>
<path d="M0 0 C1.65 0.33 3.3 0.66 5 1 C5 1.66 5 2.32 5 3 C2.29120665 4.35439668 -0.00933268 4.06501451 -3 4 C-3 3.34 -3 2.68 -3 2 C-2.01 2 -1.02 2 0 2 C0 1.34 0 0.68 0 0 Z " fill="#C23F88" transform="translate(573,570)"/>
<path d="M0 0 C3.28788824 3.11016455 5.83735988 6.01618925 8 10 C6.68 9.67 5.36 9.34 4 9 C4 8.34 4 7.68 4 7 C3.34 7 2.68 7 2 7 C1.34 4.69 0.68 2.38 0 0 Z " fill="#29091A" transform="translate(405,503)"/>
<path d="M0 0 C1.38545753 3.84849313 0.91355473 7.06468732 0 11 C-2.05078125 13.21875 -2.05078125 13.21875 -4 15 C-3.52229477 13.06213915 -3.04278429 11.12472326 -2.5625 9.1875 C-2.29566406 8.10855469 -2.02882813 7.02960938 -1.75390625 5.91796875 C-1.23922588 3.9259157 -0.65062825 1.95188476 0 0 Z " fill="#32081D" transform="translate(713,443)"/>
<path d="M0 0 C0.33 0.99 0.66 1.98 1 3 C-1.31 5.31 -3.62 7.62 -6 10 C-6.66 9.67 -7.32 9.34 -8 9 C-5.36 6.03 -2.72 3.06 0 0 Z " fill="#0E060F" transform="translate(239,445)"/>
<path d="M0 0 C2.31 0 4.62 0 7 0 C4.51047079 2.66735273 2.36591866 4.55746343 -1 6 C-1.33 5.01 -1.66 4.02 -2 3 C-1.34 2.67 -0.68 2.34 0 2 C0 1.34 0 0.68 0 0 Z " fill="#B93C81" transform="translate(513,357)"/>
<path d="M0 0 C0.99 0.33 1.98 0.66 3 1 C1.1875 4 1.1875 4 -1 7 C-1.99 7 -2.98 7 -4 7 C-2.68 4.69 -1.36 2.38 0 0 Z " fill="#B63E7E" transform="translate(402,306)"/>
<path d="M0 0 C4.875 3.625 4.875 3.625 6 7 C5.34 7 4.68 7 4 7 C3.67 6.34 3.34 5.68 3 5 C2.01 5 1.02 5 0 5 C-0.33 4.34 -0.66 3.68 -1 3 C-0.67 2.01 -0.34 1.02 0 0 Z " fill="#BA3D83" transform="translate(673,286)"/>
<path d="M0 0 C1.98 1.65 3.96 3.3 6 5 C5.67 5.66 5.34 6.32 5 7 C4.01 7 3.02 7 2 7 C1.34 4.69 0.68 2.38 0 0 Z " fill="#C9408B" transform="translate(667,280)"/>
<path d="M0 0 C3.3 0.99 6.6 1.98 10 3 C5.99998285 4.00000429 3.94476647 3.80688405 0 3 C0 2.01 0 1.02 0 0 Z " fill="#C3438B" transform="translate(523,451)"/>
<path d="M0 0 C0.66 0.33 1.32 0.66 2 1 C0.68 3.31 -0.64 5.62 -2 8 C-2.66 6.68 -3.32 5.36 -4 4 C-2.68 2.68 -1.36 1.36 0 0 Z " fill="#1F0413" transform="translate(590,425)"/>
<path d="M0 0 C0.99 0.33 1.98 0.66 3 1 C3.73046875 3.06640625 3.73046875 3.06640625 4.1875 5.5625 C4.34605469 6.38878906 4.50460937 7.21507812 4.66796875 8.06640625 C4.77753906 8.70449219 4.88710938 9.34257812 5 10 C3 9 3 9 2.1484375 6.93359375 C1.89320313 6.10988281 1.63796875 5.28617187 1.375 4.4375 C1.11460937 3.61121094 0.85421875 2.78492188 0.5859375 1.93359375 C0.39257812 1.29550781 0.19921875 0.65742188 0 0 Z " fill="#290519" transform="translate(496,419)"/>
<path d="M0 0 C0.99 0 1.98 0 3 0 C3 0.66 3 1.32 3 2 C5.475 2.99 5.475 2.99 8 4 C4.23375329 5.25541557 2.62811066 4.37061958 -1 3 C-0.67 2.01 -0.34 1.02 0 0 Z " fill="#B93D7E" transform="translate(631,252)"/>
<path d="M0 0 C-2.97 1.65 -5.94 3.3 -9 5 C-9 4.01 -9 3.02 -9 2 C-3.375 -1.125 -3.375 -1.125 0 0 Z " fill="#29091C" transform="translate(459,253)"/>
<path d="M0 0 C2.475 0.495 2.475 0.495 5 1 C5 1.66 5 2.32 5 3 C6.32 3.66 7.64 4.32 9 5 C4.98525763 5 3.18024863 3.33218233 0 1 C0 0.67 0 0.34 0 0 Z " fill="#A43773" transform="translate(448,545)"/>
<path d="M0 0 C-3.96 1.98 -3.96 1.98 -8 4 C-7.67 2.68 -7.34 1.36 -7 0 C-4 -1 -4 -1 0 0 Z " fill="#B84081" transform="translate(641,548)"/>
<path d="M0 0 C2.97 0.495 2.97 0.495 6 1 C4.68 2.32 3.36 3.64 2 5 C1.34 4.34 0.68 3.68 0 3 C0 2.01 0 1.02 0 0 Z " fill="#C43D87" transform="translate(640,542)"/>
<path d="M0 0 C1.32 0.33 2.64 0.66 4 1 C1.03 3.475 1.03 3.475 -2 6 C-2.33 5.34 -2.66 4.68 -3 4 C-2.34 4 -1.68 4 -1 4 C-0.67 2.68 -0.34 1.36 0 0 Z " fill="#2E081E" transform="translate(429,271)"/>
<path d="M0 0 C2.31 0.66 4.62 1.32 7 2 C6.67 3.32 6.34 4.64 6 6 C3.97945196 4.35830472 1.97956942 2.69088222 0 1 C0 0.67 0 0.34 0 0 Z " fill="#360D24" transform="translate(653,266)"/>
<path d="M0 0 C3.63 0.66 7.26 1.32 11 2 C11 2.33 11 2.66 11 3 C9.88625 2.979375 8.7725 2.95875 7.625 2.9375 C4.16784079 2.73619282 4.16784079 2.73619282 2 4 C1.34 2.68 0.68 1.36 0 0 Z " fill="#C44389" transform="translate(581,233)"/>
<path d="M0 0 C0.33 0.66 0.66 1.32 1 2 C-0.32 3.65 -1.64 5.3 -3 7 C-3.99 6.67 -4.98 6.34 -6 6 C-4.02 4.02 -2.04 2.04 0 0 Z " fill="#19091A" transform="translate(384,231)"/>
</svg>
